<mxfile host="app.diagrams.net" modified="2023-09-19T13:58:00.517Z" agent="Mozilla/5.0 (Windows NT 10.0; Win64; x64) AppleWebKit/537.36 (KHTML, like Gecko) Chrome/116.0.0.0 Safari/537.36" etag="m2dKfvwH3SVelmDcvSH_" version="21.7.5" type="device">
  <diagram name="Page-1" id="NfrR-SPp4-SvVIAn2ama">
    <mxGraphModel dx="500" dy="254" grid="1" gridSize="10" guides="1" tooltips="1" connect="1" arrows="1" fold="1" page="1" pageScale="1" pageWidth="850" pageHeight="1100" math="0" shadow="0">
      <root>
        <mxCell id="0" />
        <mxCell id="1" parent="0" />
        <mxCell id="3BBLkdBuX41_PqtYfWqN-31" style="edgeStyle=orthogonalEdgeStyle;rounded=0;orthogonalLoop=1;jettySize=auto;html=1;entryX=0;entryY=0.5;entryDx=0;entryDy=0;" edge="1" parent="1" source="3BBLkdBuX41_PqtYfWqN-1" target="3BBLkdBuX41_PqtYfWqN-7">
          <mxGeometry relative="1" as="geometry" />
        </mxCell>
        <mxCell id="3BBLkdBuX41_PqtYfWqN-1" value="" style="ellipse;whiteSpace=wrap;html=1;aspect=fixed;fillColor=#F19C99;strokeColor=#6c8ebf;" vertex="1" parent="1">
          <mxGeometry x="90" y="140" width="20" height="20" as="geometry" />
        </mxCell>
        <mxCell id="3BBLkdBuX41_PqtYfWqN-49" style="edgeStyle=orthogonalEdgeStyle;rounded=0;orthogonalLoop=1;jettySize=auto;html=1;entryX=0;entryY=0.5;entryDx=0;entryDy=0;" edge="1" parent="1" source="3BBLkdBuX41_PqtYfWqN-6" target="3BBLkdBuX41_PqtYfWqN-11">
          <mxGeometry relative="1" as="geometry" />
        </mxCell>
        <mxCell id="3BBLkdBuX41_PqtYfWqN-6" value="" style="ellipse;whiteSpace=wrap;html=1;aspect=fixed;fillColor=#6666FF;strokeColor=#6c8ebf;" vertex="1" parent="1">
          <mxGeometry x="200" y="90" width="20" height="20" as="geometry" />
        </mxCell>
        <mxCell id="3BBLkdBuX41_PqtYfWqN-32" style="edgeStyle=orthogonalEdgeStyle;rounded=0;orthogonalLoop=1;jettySize=auto;html=1;entryX=0;entryY=0.5;entryDx=0;entryDy=0;" edge="1" parent="1" source="3BBLkdBuX41_PqtYfWqN-7" target="3BBLkdBuX41_PqtYfWqN-13">
          <mxGeometry relative="1" as="geometry" />
        </mxCell>
        <mxCell id="3BBLkdBuX41_PqtYfWqN-33" style="rounded=0;orthogonalLoop=1;jettySize=auto;html=1;exitX=1;exitY=0;exitDx=0;exitDy=0;entryX=0;entryY=1;entryDx=0;entryDy=0;" edge="1" parent="1" source="3BBLkdBuX41_PqtYfWqN-7" target="3BBLkdBuX41_PqtYfWqN-6">
          <mxGeometry relative="1" as="geometry" />
        </mxCell>
        <mxCell id="3BBLkdBuX41_PqtYfWqN-34" style="rounded=0;orthogonalLoop=1;jettySize=auto;html=1;exitX=1;exitY=1;exitDx=0;exitDy=0;entryX=0;entryY=0;entryDx=0;entryDy=0;" edge="1" parent="1" source="3BBLkdBuX41_PqtYfWqN-7" target="3BBLkdBuX41_PqtYfWqN-18">
          <mxGeometry relative="1" as="geometry" />
        </mxCell>
        <mxCell id="3BBLkdBuX41_PqtYfWqN-38" style="rounded=0;orthogonalLoop=1;jettySize=auto;html=1;exitX=0.5;exitY=1;exitDx=0;exitDy=0;entryX=0;entryY=0;entryDx=0;entryDy=0;" edge="1" parent="1" source="3BBLkdBuX41_PqtYfWqN-7" target="3BBLkdBuX41_PqtYfWqN-19">
          <mxGeometry relative="1" as="geometry" />
        </mxCell>
        <mxCell id="3BBLkdBuX41_PqtYfWqN-7" value="" style="ellipse;whiteSpace=wrap;html=1;aspect=fixed;fillColor=#F19C99;strokeColor=#6c8ebf;" vertex="1" parent="1">
          <mxGeometry x="140" y="140" width="20" height="20" as="geometry" />
        </mxCell>
        <mxCell id="3BBLkdBuX41_PqtYfWqN-50" style="rounded=0;orthogonalLoop=1;jettySize=auto;html=1;exitX=1;exitY=1;exitDx=0;exitDy=0;entryX=0;entryY=0;entryDx=0;entryDy=0;" edge="1" parent="1" source="3BBLkdBuX41_PqtYfWqN-11" target="3BBLkdBuX41_PqtYfWqN-15">
          <mxGeometry relative="1" as="geometry" />
        </mxCell>
        <mxCell id="3BBLkdBuX41_PqtYfWqN-11" value="" style="ellipse;whiteSpace=wrap;html=1;aspect=fixed;fillColor=#6666FF;strokeColor=#6c8ebf;" vertex="1" parent="1">
          <mxGeometry x="280" y="90" width="20" height="20" as="geometry" />
        </mxCell>
        <mxCell id="3BBLkdBuX41_PqtYfWqN-43" style="edgeStyle=orthogonalEdgeStyle;rounded=0;orthogonalLoop=1;jettySize=auto;html=1;exitX=1;exitY=0.5;exitDx=0;exitDy=0;entryX=0;entryY=0.5;entryDx=0;entryDy=0;" edge="1" parent="1" source="3BBLkdBuX41_PqtYfWqN-13" target="3BBLkdBuX41_PqtYfWqN-23">
          <mxGeometry relative="1" as="geometry" />
        </mxCell>
        <mxCell id="3BBLkdBuX41_PqtYfWqN-13" value="" style="ellipse;whiteSpace=wrap;html=1;aspect=fixed;fillColor=#F19C99;strokeColor=#6c8ebf;" vertex="1" parent="1">
          <mxGeometry x="200" y="140" width="20" height="20" as="geometry" />
        </mxCell>
        <mxCell id="3BBLkdBuX41_PqtYfWqN-45" style="edgeStyle=orthogonalEdgeStyle;rounded=0;orthogonalLoop=1;jettySize=auto;html=1;exitX=1;exitY=0.5;exitDx=0;exitDy=0;entryX=0;entryY=0.5;entryDx=0;entryDy=0;" edge="1" parent="1" source="3BBLkdBuX41_PqtYfWqN-14" target="3BBLkdBuX41_PqtYfWqN-42">
          <mxGeometry relative="1" as="geometry" />
        </mxCell>
        <mxCell id="3BBLkdBuX41_PqtYfWqN-14" value="" style="ellipse;whiteSpace=wrap;html=1;aspect=fixed;fillColor=#F19C99;strokeColor=#6c8ebf;" vertex="1" parent="1">
          <mxGeometry x="262" y="140" width="20" height="20" as="geometry" />
        </mxCell>
        <mxCell id="3BBLkdBuX41_PqtYfWqN-47" style="edgeStyle=orthogonalEdgeStyle;rounded=0;orthogonalLoop=1;jettySize=auto;html=1;entryX=0;entryY=0.5;entryDx=0;entryDy=0;" edge="1" parent="1" source="3BBLkdBuX41_PqtYfWqN-15" target="3BBLkdBuX41_PqtYfWqN-16">
          <mxGeometry relative="1" as="geometry" />
        </mxCell>
        <mxCell id="3BBLkdBuX41_PqtYfWqN-15" value="" style="ellipse;whiteSpace=wrap;html=1;aspect=fixed;fillColor=#F19C99;strokeColor=#6c8ebf;" vertex="1" parent="1">
          <mxGeometry x="330" y="140" width="20" height="20" as="geometry" />
        </mxCell>
        <mxCell id="3BBLkdBuX41_PqtYfWqN-48" style="rounded=0;orthogonalLoop=1;jettySize=auto;html=1;exitX=1;exitY=1;exitDx=0;exitDy=0;entryX=0;entryY=0.5;entryDx=0;entryDy=0;" edge="1" parent="1" source="3BBLkdBuX41_PqtYfWqN-16" target="3BBLkdBuX41_PqtYfWqN-25">
          <mxGeometry relative="1" as="geometry" />
        </mxCell>
        <mxCell id="3BBLkdBuX41_PqtYfWqN-51" style="rounded=0;orthogonalLoop=1;jettySize=auto;html=1;exitX=1;exitY=0;exitDx=0;exitDy=0;entryX=0;entryY=1;entryDx=0;entryDy=0;" edge="1" parent="1" source="3BBLkdBuX41_PqtYfWqN-16" target="3BBLkdBuX41_PqtYfWqN-24">
          <mxGeometry relative="1" as="geometry" />
        </mxCell>
        <mxCell id="3BBLkdBuX41_PqtYfWqN-16" value="" style="ellipse;whiteSpace=wrap;html=1;aspect=fixed;fillColor=#F19C99;strokeColor=#6c8ebf;" vertex="1" parent="1">
          <mxGeometry x="380" y="140" width="20" height="20" as="geometry" />
        </mxCell>
        <mxCell id="3BBLkdBuX41_PqtYfWqN-36" style="edgeStyle=orthogonalEdgeStyle;rounded=0;orthogonalLoop=1;jettySize=auto;html=1;entryX=0;entryY=0.5;entryDx=0;entryDy=0;" edge="1" parent="1" source="3BBLkdBuX41_PqtYfWqN-18" target="3BBLkdBuX41_PqtYfWqN-21">
          <mxGeometry relative="1" as="geometry" />
        </mxCell>
        <mxCell id="3BBLkdBuX41_PqtYfWqN-18" value="" style="ellipse;whiteSpace=wrap;html=1;aspect=fixed;fillColor=#6666FF;strokeColor=#6c8ebf;" vertex="1" parent="1">
          <mxGeometry x="200" y="190" width="20" height="20" as="geometry" />
        </mxCell>
        <mxCell id="3BBLkdBuX41_PqtYfWqN-39" style="edgeStyle=orthogonalEdgeStyle;rounded=0;orthogonalLoop=1;jettySize=auto;html=1;exitX=1;exitY=0.5;exitDx=0;exitDy=0;entryX=0;entryY=0.5;entryDx=0;entryDy=0;" edge="1" parent="1" source="3BBLkdBuX41_PqtYfWqN-19" target="3BBLkdBuX41_PqtYfWqN-20">
          <mxGeometry relative="1" as="geometry" />
        </mxCell>
        <mxCell id="3BBLkdBuX41_PqtYfWqN-19" value="" style="ellipse;whiteSpace=wrap;html=1;aspect=fixed;fillColor=#6666FF;strokeColor=#6c8ebf;" vertex="1" parent="1">
          <mxGeometry x="200" y="240" width="20" height="20" as="geometry" />
        </mxCell>
        <mxCell id="3BBLkdBuX41_PqtYfWqN-41" style="rounded=0;orthogonalLoop=1;jettySize=auto;html=1;exitX=1;exitY=0;exitDx=0;exitDy=0;" edge="1" parent="1" source="3BBLkdBuX41_PqtYfWqN-20" target="3BBLkdBuX41_PqtYfWqN-15">
          <mxGeometry relative="1" as="geometry" />
        </mxCell>
        <mxCell id="3BBLkdBuX41_PqtYfWqN-20" value="" style="ellipse;whiteSpace=wrap;html=1;aspect=fixed;fillColor=#6666FF;strokeColor=#6c8ebf;" vertex="1" parent="1">
          <mxGeometry x="280" y="240" width="20" height="20" as="geometry" />
        </mxCell>
        <mxCell id="3BBLkdBuX41_PqtYfWqN-37" style="edgeStyle=orthogonalEdgeStyle;rounded=0;orthogonalLoop=1;jettySize=auto;html=1;entryX=0;entryY=0.5;entryDx=0;entryDy=0;" edge="1" parent="1" source="3BBLkdBuX41_PqtYfWqN-21" target="3BBLkdBuX41_PqtYfWqN-22">
          <mxGeometry relative="1" as="geometry" />
        </mxCell>
        <mxCell id="3BBLkdBuX41_PqtYfWqN-21" value="" style="ellipse;whiteSpace=wrap;html=1;aspect=fixed;fillColor=#6666FF;strokeColor=#6c8ebf;" vertex="1" parent="1">
          <mxGeometry x="240" y="190" width="20" height="20" as="geometry" />
        </mxCell>
        <mxCell id="3BBLkdBuX41_PqtYfWqN-40" style="rounded=0;orthogonalLoop=1;jettySize=auto;html=1;entryX=0;entryY=1;entryDx=0;entryDy=0;" edge="1" parent="1" source="3BBLkdBuX41_PqtYfWqN-22" target="3BBLkdBuX41_PqtYfWqN-15">
          <mxGeometry relative="1" as="geometry" />
        </mxCell>
        <mxCell id="3BBLkdBuX41_PqtYfWqN-22" value="" style="ellipse;whiteSpace=wrap;html=1;aspect=fixed;fillColor=#6666FF;strokeColor=#6c8ebf;" vertex="1" parent="1">
          <mxGeometry x="280" y="190" width="20" height="20" as="geometry" />
        </mxCell>
        <mxCell id="3BBLkdBuX41_PqtYfWqN-44" style="edgeStyle=orthogonalEdgeStyle;rounded=0;orthogonalLoop=1;jettySize=auto;html=1;exitX=1;exitY=0.5;exitDx=0;exitDy=0;entryX=0;entryY=0.5;entryDx=0;entryDy=0;" edge="1" parent="1" source="3BBLkdBuX41_PqtYfWqN-23" target="3BBLkdBuX41_PqtYfWqN-14">
          <mxGeometry relative="1" as="geometry" />
        </mxCell>
        <mxCell id="3BBLkdBuX41_PqtYfWqN-23" value="" style="ellipse;whiteSpace=wrap;html=1;aspect=fixed;fillColor=#F19C99;strokeColor=#6c8ebf;" vertex="1" parent="1">
          <mxGeometry x="230" y="140" width="20" height="20" as="geometry" />
        </mxCell>
        <mxCell id="3BBLkdBuX41_PqtYfWqN-53" style="rounded=0;orthogonalLoop=1;jettySize=auto;html=1;exitX=1;exitY=1;exitDx=0;exitDy=0;entryX=0;entryY=0;entryDx=0;entryDy=0;" edge="1" parent="1" source="3BBLkdBuX41_PqtYfWqN-24" target="3BBLkdBuX41_PqtYfWqN-28">
          <mxGeometry relative="1" as="geometry" />
        </mxCell>
        <mxCell id="3BBLkdBuX41_PqtYfWqN-24" value="" style="ellipse;whiteSpace=wrap;html=1;aspect=fixed;fillColor=#6666FF;strokeColor=#6c8ebf;" vertex="1" parent="1">
          <mxGeometry x="450" y="90" width="20" height="20" as="geometry" />
        </mxCell>
        <mxCell id="3BBLkdBuX41_PqtYfWqN-52" style="edgeStyle=orthogonalEdgeStyle;rounded=0;orthogonalLoop=1;jettySize=auto;html=1;entryX=0;entryY=0.5;entryDx=0;entryDy=0;" edge="1" parent="1" source="3BBLkdBuX41_PqtYfWqN-25" target="3BBLkdBuX41_PqtYfWqN-26">
          <mxGeometry relative="1" as="geometry" />
        </mxCell>
        <mxCell id="3BBLkdBuX41_PqtYfWqN-25" value="" style="ellipse;whiteSpace=wrap;html=1;aspect=fixed;fillColor=#F19C99;strokeColor=#6c8ebf;" vertex="1" parent="1">
          <mxGeometry x="430" y="190" width="20" height="20" as="geometry" />
        </mxCell>
        <mxCell id="3BBLkdBuX41_PqtYfWqN-54" style="rounded=0;orthogonalLoop=1;jettySize=auto;html=1;exitX=1;exitY=0;exitDx=0;exitDy=0;entryX=0;entryY=1;entryDx=0;entryDy=0;" edge="1" parent="1" source="3BBLkdBuX41_PqtYfWqN-26" target="3BBLkdBuX41_PqtYfWqN-28">
          <mxGeometry relative="1" as="geometry" />
        </mxCell>
        <mxCell id="3BBLkdBuX41_PqtYfWqN-26" value="" style="ellipse;whiteSpace=wrap;html=1;aspect=fixed;fillColor=#F19C99;strokeColor=#6c8ebf;" vertex="1" parent="1">
          <mxGeometry x="470" y="190" width="20" height="20" as="geometry" />
        </mxCell>
        <mxCell id="3BBLkdBuX41_PqtYfWqN-28" value="" style="ellipse;whiteSpace=wrap;html=1;aspect=fixed;fillColor=#FFD966;strokeColor=#6c8ebf;" vertex="1" parent="1">
          <mxGeometry x="500" y="140" width="20" height="20" as="geometry" />
        </mxCell>
        <mxCell id="3BBLkdBuX41_PqtYfWqN-46" style="edgeStyle=orthogonalEdgeStyle;rounded=0;orthogonalLoop=1;jettySize=auto;html=1;exitX=1;exitY=0.5;exitDx=0;exitDy=0;entryX=0;entryY=0.5;entryDx=0;entryDy=0;" edge="1" parent="1" source="3BBLkdBuX41_PqtYfWqN-42" target="3BBLkdBuX41_PqtYfWqN-15">
          <mxGeometry relative="1" as="geometry" />
        </mxCell>
        <mxCell id="3BBLkdBuX41_PqtYfWqN-42" value="" style="ellipse;whiteSpace=wrap;html=1;aspect=fixed;fillColor=#F19C99;strokeColor=#6c8ebf;" vertex="1" parent="1">
          <mxGeometry x="293" y="140" width="20" height="20" as="geometry" />
        </mxCell>
      </root>
    </mxGraphModel>
  </diagram>
</mxfile>
